<svg width="100" height="60" viewBox="0 0 100 60" fill="none" xmlns="http://www.w3.org/2000/svg">
<path d="M100 30C100 26.0603 99.1378 22.1593 97.4626 18.5195C95.7875 14.8797 93.3322 11.5726 90.2369 8.78679C87.1416 6.00104 83.467 3.79125 79.4228 2.28361C75.3786 0.775972 71.0441 -1.72208e-07 66.6667 0L66.6667 30H100Z" fill="#228B22"/>
<path d="M66.6667 30C66.6667 26.0603 65.8045 22.1593 64.1293 18.5195C62.4542 14.8797 59.9989 11.5726 56.9036 8.78679C53.8083 6.00104 50.1336 3.79125 46.0895 2.28361C42.0453 0.775972 37.7107 -1.72208e-07 33.3333 0L33.3333 30H66.6667Z" fill="#228B22"/>
<path d="M33.3333 9.70676e-07C28.9559 1.09368e-06 24.6214 0.775974 20.5772 2.28361C16.533 3.79126 12.8584 6.00104 9.7631 8.7868C6.66782 11.5726 4.2125 14.8797 2.53735 18.5195C0.862191 22.1593 -4.59221e-07 26.0603 0 30L33.3333 30L33.3333 9.70676e-07Z" fill="#115D33"/>
<path d="M8.53e-06 30C8.91268e-06 33.9397 0.862203 37.8407 2.53736 41.4805C4.21252 45.1203 6.66783 48.4274 9.76312 51.2132C12.8584 53.999 16.533 56.2087 20.5772 57.7164C24.6214 59.224 28.9559 60 33.3333 60L33.3333 30L8.53e-06 30Z" fill="#073B3A"/>
<ellipse cx="83.3333" cy="15" rx="3.33333" ry="3" fill="white"/>
<path d="M49.2594 53.2544C49.2594 54.4181 48.6776 55 47.5138 55H41.508C40.3768 55 39.8112 54.4181 39.8112 53.2544V37.6538C39.8112 36.4819 40.389 35.896 41.5446 35.896H47.5138C48.6776 35.896 49.2594 36.4819 49.2594 37.6538V41.731H46.3908V38.3496H42.6676V52.5464H46.3908V47.1997H44.2668V44.7705H49.2594V53.2544ZM59.4767 55H51.5544V35.896H59.4035V38.4229H54.4108V44.0015H58.7077V46.4795H54.4108V52.4731H59.4767V55ZM70.8415 53.2544C70.8415 54.4181 70.2596 55 69.0959 55H63.1388C62.0077 55 61.4421 54.4181 61.4421 53.2544V37.6538C61.4421 36.4819 62.0077 35.896 63.1388 35.896H69.0959C70.2596 35.896 70.8415 36.4819 70.8415 37.6538V42.1216H67.9972V38.3496H64.2985V52.5464H67.9972V48.5303H70.8415V53.2544ZM82.7189 55H79.5695L75.944 46.4795V55H73.0876V35.896H75.944V43.9771L79.1178 35.896H82.2428V36.0303L78.361 45.1001L82.7189 55ZM93.5099 53.2544C93.5099 54.4181 92.9321 55 91.7765 55H85.5754C84.4442 55 83.8786 54.4181 83.8786 53.2544V37.6538C83.8786 36.4819 84.4442 35.896 85.5754 35.896H91.7765C92.9321 35.896 93.5099 36.4819 93.5099 37.6538V53.2544ZM90.6535 52.5464V38.3496H86.735V52.5464H90.6535Z" fill="#073B3A"/>
</svg>
